# xmcd
#
# Track frame offsets:
#	150
#	20228
#	42754
#	62715
#	85482
#	103112
#	106001
#	129171
#	137423
#	157329
#	177095
#	189219
#	210405
#	223728
#	243263
#
# Disc length: 3446 seconds
#
# Revision: 0
# Processed by: cddbd v1.5.1PL0 Copyright (c) Steve Scherf et al.
# Submitted via: dBpowerAMP V4.0
#
DISCID=ca0d740f
DTITLE=Axel Nagel - 360°
DYEAR=2005
DGENRE=Blues
TTITLE0=John Franklin
TTITLE1=Man Walking
TTITLE2=The Second Side
TTITLE3=Forest
TTITLE4=Some Actors
TTITLE5=October 25th
TTITLE6=Two Pictures
TTITLE7=Gilla
TTITLE8=Found Something
TTITLE9=360°
TTITLE10=Waitin'
TTITLE11=The Long Hot Night
TTITLE12=Big Sense
TTITLE13=The Chill
TTITLE14=Adventures Going Slow
EXTD=Axel Nagel first Solo Album
EXTT0=
EXTT1=
EXTT2=
EXTT3=
EXTT4=
EXTT5=
EXTT6=
EXTT7=
EXTT8=
EXTT9=
EXTT10=
EXTT11=
EXTT12=
EXTT13=
EXTT14=
PLAYORDER=
